<?xml version="1.0" encoding="UTF-8" standalone="no"?>
<!DOCTYPE svg PUBLIC "-//W3C//DTD SVG 1.1//EN" "http://www.w3.org/Graphics/SVG/1.1/DTD/svg11.dtd">
<svg width="100%" height="100%" viewBox="0 0 500 500" version="1.1" xmlns="http://www.w3.org/2000/svg" xmlns:xlink="http://www.w3.org/1999/xlink" xml:space="preserve" xmlns:serif="http://www.serif.com/" style="fill-rule:evenodd;clip-rule:evenodd;stroke-linecap:round;stroke-linejoin:round;stroke-miterlimit:1.5;">
    <g id="Plan-de-travail1" serif:id="Plan de travail1" transform="matrix(0.829591,0,0,1.00572,0,0)">
        <rect x="0" y="0" width="602.706" height="497.155" style="fill:none;"/>
        <g transform="matrix(1.14956,0.0280523,-0.0412284,1.14956,-32.7507,-4.53441)">
            <g id="hole">
                <g id="mole">
                    <g transform="matrix(2.7152,1.34663,-1.63253,2.23969,-159.359,-410.566)">
                        <path d="M250,136.005C250,136.005 244.24,126.927 201.062,135.23C175.25,140.194 192.155,129.034 190.219,118.964C188.282,108.895 192.761,118.475 223.199,112.622C253.636,106.769 250,107.346 250,101.924C250,96.502 250,136.005 250,136.005Z" style="fill:rgb(245,162,162);stroke:rgb(188,131,131);stroke-width:0.77px;"/>
                    </g>
                    <g transform="matrix(2.7152,1.34663,-1.63253,2.23969,-159.359,-410.566)">
                        <path d="M254.883,136.798C254.883,136.798 251.016,138.49 251.016,141.17C251.016,143.85 248.984,137.271 250,135.809C250,135.809 250.529,133.454 248.092,136.378C245.656,139.302 244.6,132.886 247.686,131.18C247.686,131.18 247.28,127.119 242.245,130.53C237.209,133.941 244.519,126.713 246.143,125.982C247.767,125.251 245.493,122.409 239.889,124.845C234.285,127.282 242.813,118.997 245.087,119.728C247.361,120.459 245.818,117.617 242.326,117.048C238.833,116.48 243.057,112.987 245.25,113.556C247.442,114.124 247.361,108.926 244.6,109.008C241.838,109.089 237.285,109.39 244.516,106.153C251.747,102.916 243.869,103.16 241.432,104.053C238.996,104.947 239.077,100.236 243.95,99.18C248.823,98.124 243.3,95.932 244.356,92.845C245.412,89.759 245.697,96.013 247.849,96.419C250,96.825 251.747,96.419 251.747,94.957C251.747,93.495 252.395,87.485 250,87.16C247.605,86.835 256.782,88.866 258.082,91.059C259.381,93.251 255.727,93.089 261.574,89.759C267.422,86.429 269.94,87.079 271.077,87.079C272.214,87.079 271.077,88.947 271.077,90.165C271.077,91.383 270.493,90.165 277.473,90.165C284.452,90.165 269.7,92.624 277.473,92.624C285.245,92.624 283.818,89.293 288.259,89.452C292.701,89.611 297.936,94.687 293.811,94.211C289.687,93.735 286.356,97.066 291.749,99.287C297.143,101.508 294.028,98.403 300.315,100.715C306.793,103.097 309.452,102.978 300.474,111.025C299.522,107.536 305.226,109.827 308.637,113.807C312.049,117.787 309.287,114.051 306.282,117.056C303.277,120.061 309.983,117.251 313.592,120.711C317.159,124.131 320.664,126.021 310.83,125.908C302.059,124.203 311.733,124.254 313.002,129.33C314.271,134.406 316.379,135.703 311.574,133.295C306.768,130.888 305.546,134.723 307.608,137.737C309.67,140.751 307.608,138.847 303.801,137.896C299.994,136.944 301.104,141.544 298.725,141.386C296.346,141.227 297.615,138.213 292.221,138.372C286.828,138.53 292.539,136.785 289.525,141.386C286.511,145.986 278.638,146.856 281.117,142.179C283.596,137.501 262.241,145.351 262.241,145.351L257.323,143.289L254.883,136.798Z" style="fill:rgb(130,130,130);stroke:rgb(154,154,154);stroke-width:0.77px;"/>
                    </g>
                    <g transform="matrix(0.887283,0,0,0.731895,85.2551,45.3989)">
                        <circle cx="267.989" cy="173.004" r="9.391" style="stroke:black;stroke-width:2.75px;"/>
                    </g>
                    <g transform="matrix(2.72792,1.32902,-1.61119,2.25018,-173.228,-424.796)">
                        <path d="M241.744,156.674C241.744,156.674 221.541,158.4 215.45,179.111C209.359,199.821 218.699,183.07 220.628,181.547C222.557,180.024 227.016,169.653 233.521,167.943C240.025,166.233 223.775,170.177 223.47,180.43C223.166,190.684 225.907,193.019 226.11,195.456C226.313,197.892 226.128,184.069 238.394,173.019C239.746,171.801 232.404,185.202 236.668,197.182C240.932,209.161 236.668,190.38 245.298,180.43C253.927,170.481 257.596,168.987 261.255,169.644C272.393,171.641 273.631,155.128 268.013,152.664C266.897,152.175 241.744,156.674 241.744,156.674Z" style="fill:rgb(245,162,162);stroke:rgb(188,131,131);stroke-width:0.77px;"/>
                    </g>
                    <g transform="matrix(3.38248,1.64792,-1.99779,2.79011,-271.899,-583.412)">
                        <path d="M244.387,156.066C244.387,156.066 246.06,153.566 241.873,154.708C237.685,155.85 243.39,149.632 246.695,149.251C250,148.87 253.677,147.402 250,146.713C246.323,146.023 248.091,145.824 256.339,144.302C264.588,142.779 266.872,140.621 262.431,139.987C257.989,139.352 265.35,136.307 269.664,137.703C273.979,139.099 277.025,140.368 276.136,137.83C275.248,135.292 276.652,133.392 281.026,136.118C285.4,138.845 288.573,139.987 288.7,137.322C288.827,134.657 289.309,132.384 292.887,135.038C296.465,137.692 295.41,137.631 298.852,136.941C303.88,135.933 309.684,131.021 300.755,140.748C298.788,142.892 306.384,141.972 303.42,144.682C299.692,148.092 311.542,146.459 305.197,148.87C298.852,151.281 305.818,152.235 306.599,152.56C307.38,152.884 307.632,154.201 305.557,155.07C303.482,155.938 299.778,156.458 298.154,155.613C296.529,154.768 294.52,154.763 295.035,157.692C295.55,160.621 296.334,159.577 289.577,159.382C282.82,159.187 284.188,152.934 281.52,156.003C278.852,159.072 277.912,156.851 277.882,158.537C277.852,160.223 276.119,159.146 274.698,156.848C274.399,156.364 270.016,158.285 268.85,155.353C267.876,155.093 269.045,156.783 267.161,158.082C265.277,159.382 268.266,157.887 264.302,157.043C260.339,156.198 260.534,152.04 257.61,154.704C254.686,157.367 252.997,161.916 252.477,158.212C251.957,154.509 252.219,154.564 250,156.718C247.781,158.871 249.423,152.754 247.084,155.223C244.745,157.692 244.354,158.273 244.387,156.066Z" style="fill:rgb(130,130,130);stroke:rgb(154,154,154);stroke-width:0.62px;"/>
                    </g>
                    <g transform="matrix(3.1682,0,0,2.61335,-486.605,-85.291)">
                        <path d="M277.156,121.959C277.156,121.959 262.537,127.542 274.517,117.086C286.496,106.629 270.354,117.898 266.395,120.334C262.436,122.771 265.786,114.344 267.309,112.009C267.309,112.009 261.319,113.431 258.476,117.086C255.634,120.74 256.547,111.197 260.71,108.862" style="fill:none;stroke:rgb(154,154,154);stroke-width:0.77px;"/>
                    </g>
                </g>
            </g>
        </g>
    </g>
</svg>
